<svg xmlns="http://www.w3.org/2000/svg" viewBox="0 0 500 500" width="500" height="500">
  <rect width="500" height="500" fill="#0A0A0A"/>

  <!-- D stem (vertical line) -->
  <line x1="155" y1="110" x2="155" y2="350" stroke="#C9A84C" stroke-width="14" stroke-linecap="round"/>

  <!-- D arc (large curved belly) -->
  <path d="M155,110 C155,110 345,110 345,230 C345,350 155,350 155,350"
        fill="none" stroke="#C9A84C" stroke-width="14" stroke-linecap="round" stroke-linejoin="round"/>

  <!-- Female face silhouette inside D (profile facing right) -->
  <!-- Neck -->
  <path d="M215,305 C215,305 218,320 220,330 C222,340 230,344 230,344 L225,344 C225,344 212,340 210,330 C208,320 205,305 205,305 Z"
        fill="#C9A84C"/>

  <!-- Head/face profile -->
  <path d="
    M205,220
    C205,195 212,178 225,168
    C235,160 248,158 258,162
    C270,167 278,178 280,193
    C282,205 278,218 272,228
    C266,238 258,244 252,248
    C248,251 244,253 240,258
    C236,263 233,270 232,278
    C231,285 231,295 230,305
    C228,312 224,315 220,315
    C216,315 213,312 212,308
    C211,302 212,292 213,282
    C214,272 216,264 215,255
    C214,246 210,240 207,232
    C205,228 205,224 205,220 Z"
        fill="#C9A84C"/>

  <!-- Eye detail -->
  <ellipse cx="258" cy="195" rx="5" ry="4" fill="#0A0A0A"/>
  <path d="M250,190 C253,185 262,184 268,188" fill="none" stroke="#0A0A0A" stroke-width="2.5" stroke-linecap="round"/>

  <!-- Nose -->
  <path d="M268,210 C270,213 270,217 267,220" fill="none" stroke="#0A0A0A" stroke-width="2" stroke-linecap="round"/>

  <!-- Lips -->
  <path d="M252,230 C256,228 262,228 266,230 C262,235 256,235 252,230 Z" fill="#0A0A0A"/>

  <!-- Hair flowing along inside of D arc -->
  <path d="
    M205,220
    C200,205 200,188 208,173
    C216,158 228,148 244,145
    C258,142 272,147 282,157
    C295,169 298,186 295,202
    C300,195 305,182 302,165
    C298,145 284,128 265,120
    C248,113 228,115 212,125
    C195,136 184,155 181,175
    C178,192 182,210 190,225
    C196,235 203,240 205,235
    C206,228 205,224 205,220 Z"
        fill="#C9A84C"/>

  <!-- Flowing hair tail (sweeping down along D arc interior) -->
  <path d="
    M282,157
    C295,170 310,185 318,205
    C326,225 325,248 318,268
    C310,290 295,308 278,318
    C268,324 258,326 252,326
    C248,326 248,320 252,318
    C262,316 272,310 280,300
    C292,285 298,265 297,245
    C296,225 288,207 278,193"
        fill="none" stroke="#C9A84C" stroke-width="10" stroke-linecap="round" stroke-linejoin="round"/>

  <!-- DONCELLAS text -->
  <text x="250" y="410"
        font-family="Georgia, 'Times New Roman', serif"
        font-size="36"
        font-weight="normal"
        letter-spacing="10"
        text-anchor="middle"
        fill="#C9A84C">DONCELLAS</text>

  <!-- thin decorative line under text -->
  <line x1="140" y1="425" x2="360" y2="425" stroke="#C9A84C" stroke-width="1" opacity="0.6"/>
</svg>
